<svg width="123" height="121" viewBox="0 0 123 121" fill="none" xmlns="http://www.w3.org/2000/svg">
<path d="M15.4401 85.8291C16.7001 84.8491 18.5201 85.0791 19.5001 86.3391C20.4801 87.5991 20.2501 89.4191 18.9901 90.3991L5.89006 100.569L5.79006 113.959L21.5701 113.079L30.3001 99.2091C31.1501 97.8591 32.9301 97.4591 34.2801 98.3091C35.6301 99.1591 36.0301 100.939 35.1801 102.289L25.7101 117.339C25.2401 118.149 24.3801 118.709 23.3701 118.769L3.04006 119.899C2.98006 119.899 2.93006 119.899 2.87006 119.899C1.28006 119.889 -0.00994225 118.599 5.77493e-05 117.009L0.130058 99.3591C0.0600577 98.4291 0.450058 97.4791 1.24006 96.8591L15.4401 85.8291ZM40.2801 53.8091C46.8701 34.1191 55.7401 20.1691 68.2301 11.3691C81.2001 2.24913 97.8601 -1.21087 119.69 0.369134C121.2 0.479134 122.35 1.71913 122.38 3.19913C124.49 26.8391 119.91 43.5991 110.13 56.2991C100.71 68.5091 86.6001 76.7691 69.0701 83.6991V106.769C69.0701 107.899 68.4201 108.879 67.4701 109.359L49.6301 120.379C48.2801 121.219 46.5001 120.799 45.6601 119.439C45.4401 119.079 45.3001 118.689 45.2501 118.299C41.3001 88.1091 37.1001 86.6591 12.4201 78.1191C9.48006 77.0991 6.29006 75.9991 4.14006 75.2391C2.64006 74.7091 1.85006 73.0591 2.38006 71.5491C2.49006 71.2291 2.66006 70.9391 2.86006 70.6891L14.6201 53.9191C15.2101 53.0791 16.1601 52.6491 17.1201 52.6891L40.2801 53.8091ZM84.6801 25.7191C88.0401 25.7191 91.0801 27.0791 93.2801 29.2791C95.4801 31.4791 96.8401 34.5191 96.8401 37.8791C96.8401 41.2391 95.4801 44.2791 93.2801 46.4791C91.0801 48.6791 88.0401 50.0391 84.6801 50.0391C81.3201 50.0391 78.2801 48.6791 76.0801 46.4791C73.8801 44.2791 72.5201 41.2391 72.5201 37.8791C72.5201 34.5191 73.8801 31.4791 76.0801 29.2791C78.2801 27.0791 81.3201 25.7191 84.6801 25.7191ZM90.4801 32.0791C89.0001 30.5991 86.9501 29.6791 84.6801 29.6791C82.4201 29.6791 80.3701 30.5991 78.8801 32.0791C77.4001 33.5591 76.4801 35.6091 76.4801 37.8791C76.4801 40.1391 77.4001 42.1891 78.8801 43.6791C80.3601 45.1591 82.4101 46.0791 84.6801 46.0791C86.9401 46.0791 88.9901 45.1591 90.4801 43.6791C91.9601 42.1991 92.8801 40.1491 92.8801 37.8791C92.8801 35.6091 91.9601 33.5591 90.4801 32.0791ZM71.5501 16.0991C59.7401 24.4191 51.3701 38.0391 45.1201 57.5291C44.7801 58.8191 43.5801 59.7491 42.1901 59.6791L18.4201 58.5191L9.64006 71.0491C11.5001 71.6991 12.9301 72.1991 14.3001 72.6691C40.6201 81.7691 46.0901 83.6591 50.3701 113.139L63.2801 105.169V81.7391H63.2901C63.2901 80.5791 64.0001 79.4891 65.1401 79.0491C82.6001 72.3291 96.5501 64.4491 105.55 52.7691C114.14 41.6191 118.3 26.8191 116.81 5.97913C97.5801 4.91913 82.8901 8.12913 71.5501 16.0991Z" fill="#016A41"/>
</svg>
