<svg width="100" height="70" viewBox="0 0 100 70" fill="none" xmlns="http://www.w3.org/2000/svg">
<path d="M0.613076 32.9102C3.44706 28.5692 6.38066 24.6516 9.39043 21.1748C21.1424 7.60927 34.3299 0.373349 47.951 0.0142771C61.5468 -0.347271 75.494 6.15317 88.7988 20.0604C92.4023 23.8269 95.9472 28.1185 99.4042 32.9375C100.15 33.975 100.189 35.5178 99.5566 36.6049C95.7031 43.5165 91.3574 49.3334 86.6718 54.0781C76.2089 64.6695 64.0233 69.9021 51.6717 69.9986C39.3573 70.0952 26.8983 65.0781 15.8436 55.1826C10.3143 50.2299 5.13066 44.0563 0.495888 36.6916C-0.217004 35.555 -0.146691 33.9429 0.613076 32.9102ZM49.9999 20.6126C56.2675 20.6126 61.3475 27.0536 61.3475 35.0003C61.3475 42.9469 56.2675 49.3879 49.9999 49.3879C43.7323 49.3879 38.6522 42.9469 38.6522 35.0003C38.6522 33.5219 38.828 32.093 39.1542 30.7508C39.9842 33.512 42.0917 35.4732 44.5604 35.4732C47.7538 35.4732 50.3436 32.1896 50.3436 28.1407C50.3436 24.9958 48.785 22.3164 46.5936 21.2738C47.6678 20.8454 48.8124 20.6126 49.9999 20.6126ZM70.9452 12.3119C72.8258 15.1047 74.3483 18.2552 75.4569 21.6477C76.8085 25.7758 77.5546 30.2902 77.5546 35.0003C77.5546 39.7128 76.8085 44.2272 75.4589 48.3577C74.072 52.5982 72.0413 56.4518 69.4823 59.6995L69.1073 60.1675C74.2636 57.7332 79.2226 54.2019 83.828 49.5414C87.7577 45.5619 91.4374 40.7528 94.7636 35.1117C91.8339 31.1669 88.873 27.638 85.9003 24.5302C80.9745 19.3794 75.9706 15.3182 70.9452 12.3119ZM29.5233 58.3474C27.4432 55.4228 25.7479 52.0475 24.5428 48.3627C23.1559 44.1273 22.4431 39.5861 22.4451 35.0003C22.4451 30.2927 23.1893 25.7833 24.5389 21.6601C25.8768 17.5692 27.8104 13.8695 30.1952 10.7394C24.0428 14.0404 18.0916 18.9733 12.4686 25.4589C9.98809 28.324 7.57793 31.4764 5.25175 34.9111C9.30254 41.0302 13.7557 46.2132 18.4725 50.4404C22.0252 53.62 25.7283 56.2598 29.5233 58.3474ZM58.7792 8.06739C56.0878 6.65339 53.119 5.86839 50.0018 5.86839C46.8885 5.86839 43.9237 6.65339 41.2264 8.07235C38.4256 9.54578 35.8905 11.72 33.7596 14.4217C31.6346 17.1185 29.9237 20.3278 28.7596 23.8814C27.6444 27.2963 27.0252 31.0554 27.0252 35.0003C27.0252 38.9525 27.6444 42.7191 28.7635 46.1389C29.9223 49.6771 31.62 52.8909 33.7596 55.5961C35.8807 58.2805 38.4159 60.4498 41.2284 61.9282C43.9237 63.3447 46.8885 64.1272 50.0018 64.1272C53.1171 64.1272 56.0858 63.3422 58.7831 61.9282C61.5878 60.4597 64.119 58.2879 66.244 55.5961C68.369 52.9019 70.08 49.6925 71.2382 46.1464C72.3554 42.7166 72.9745 38.9525 72.9745 35.0003C72.9745 31.0505 72.3554 27.2889 71.2382 23.869C70.08 20.3105 68.369 17.1011 66.244 14.4069C64.1229 11.7175 61.5878 9.54578 58.7792 8.06739Z" fill="#016A41"/>
</svg>
